<svg width="816" height="615" viewBox="0 0 816 615" fill="none" xmlns="http://www.w3.org/2000/svg">
<path d="M623.464 518.597C623.171 529.863 622.877 540.994 622.73 552.126C622.437 567.952 621.996 583.911 621.703 599.737C621.556 604.431 621.556 609.125 621.556 613.819C621.849 614.49 622.583 614.892 623.318 614.758C623.758 614.624 624.199 614.221 624.345 613.819C624.639 602.687 624.933 591.556 625.08 580.424C625.373 564.465 625.667 548.639 625.961 532.813C625.961 528.119 626.107 523.425 626.254 518.731C626.107 518.061 625.52 517.524 624.786 517.658C624.052 517.524 623.611 517.927 623.464 518.597Z" fill="black"/>
<path d="M625.667 260.962C625.52 291.406 625.226 321.85 624.932 352.294C624.786 361.548 624.639 370.936 624.639 380.19C624.932 380.861 625.666 381.263 626.547 381.129C626.988 380.995 627.428 380.727 627.575 380.19C628.016 364.231 628.016 348.271 628.163 332.445C628.309 317.693 628.309 303.074 628.456 288.322C628.456 279.202 628.456 270.082 628.603 260.962C628.456 260.291 627.869 259.755 627.135 259.889C626.254 259.889 625.667 260.291 625.667 260.962Z" fill="black"/>
<path d="M799.808 80.9795C765.449 95.4639 730.65 108.875 695.558 121.885C678.232 128.322 660.906 134.491 643.433 140.661C639.322 142.136 635.064 143.611 630.952 145.087C629.19 146.025 627.575 147.232 626.401 148.842C625.373 150.049 625.96 151.926 625.96 153.402C625.96 155.816 625.96 158.23 625.96 160.644C625.96 165.204 625.96 169.898 625.96 174.458C625.96 195.782 625.52 216.972 625.52 238.297C625.813 238.967 626.547 239.369 627.428 239.101C627.869 238.967 628.162 238.699 628.309 238.297C628.603 215.363 628.75 192.429 628.75 169.496C628.75 163.058 628.75 156.486 628.75 150.049L628.309 150.988L631.246 148.305C632.421 147.232 635.064 146.696 636.972 146.025L654.152 139.856C666.192 135.564 678.232 131.139 690.272 126.713C714.646 117.727 738.873 108.607 762.953 98.9509C775.728 93.8546 788.502 88.6241 801.129 83.2595C802.745 82.4548 801.423 80.3089 799.808 80.9795Z" fill="black"/>
<path d="M193.837 399.369C193.396 420.425 193.103 441.481 192.809 462.537C192.662 479.972 192.368 497.273 191.928 514.708C191.634 524.096 191.194 533.618 191.047 543.006C191.047 544.75 193.983 544.75 193.983 543.006C195.011 526.242 195.158 509.477 195.452 492.713C195.745 474.071 195.892 455.563 196.039 437.055C196.186 424.583 196.333 411.976 196.48 399.503C196.333 398.832 195.745 398.296 195.011 398.43C194.277 398.43 193.837 398.832 193.837 399.369Z" fill="black"/>
<path d="M6.33344 127.383C33.4972 132.48 60.6609 137.844 87.531 144.014C114.401 150.183 140.831 157.023 166.967 164.936C175.042 167.35 183.118 169.764 191.047 172.312C192.075 172.58 193.102 172.983 193.983 173.385C194.718 173.787 195.305 174.324 196.039 174.86L199.71 177.408L198.976 176.201C198.535 195.246 198.095 214.29 197.801 233.334C197.507 255.195 197.067 277.056 196.773 298.917C196.626 312.462 196.333 326.008 196.186 339.554C196.186 340.358 196.773 340.895 197.654 340.895C198.535 340.895 199.123 340.358 199.123 339.554C199.71 314.206 200.004 288.858 200.297 263.376C200.591 241.247 201.031 219.252 201.472 197.123C201.619 192.161 201.619 187.333 201.765 182.371L201.912 179.018C201.912 178.079 202.353 176.335 201.765 175.531C201.031 174.726 200.15 174.055 199.123 173.519C197.948 172.714 196.626 171.775 195.452 170.971C193.543 169.764 190.753 169.227 188.551 168.557C181.943 166.411 175.189 164.399 168.582 162.387C143.767 155.011 118.659 148.305 93.2574 142.538C68.0025 136.771 42.6007 131.675 17.1989 126.847L7.06759 124.969C5.30562 124.701 4.57147 127.115 6.33344 127.383Z" fill="black"/>
<path d="M49.5023 393.065C48.6213 372.948 50.677 352.831 51.1175 332.714C51.2643 327.617 51.2643 322.655 50.9706 317.559L50.5301 318.497L53.1731 315.815L51.7048 316.217C74.6104 319.704 97.5161 323.594 120.275 327.617C146.558 332.177 172.987 337.005 199.123 342.236C210.723 344.516 222.469 346.93 233.922 349.746L232.894 348.405L231.132 394.809L230.839 401.381L232.307 400.039C212.044 398.296 191.635 396.821 171.225 396.552C161.975 396.418 152.871 396.016 143.621 395.614C119.1 394.541 94.4326 393.334 69.9118 392.395C65.9474 392.261 61.983 392.127 58.0185 391.993C57.1375 391.993 56.1097 391.993 55.2287 391.993C53.9073 392.127 52.5858 393.065 53.7604 394.273L54.7882 392.127L48.034 391.858C46.272 391.724 46.272 394.272 48.034 394.407L54.7882 394.675C55.5224 394.541 56.1097 394.004 56.1097 393.2C56.1097 392.931 55.9629 392.663 55.8161 392.529C56.2565 392.931 55.6692 394.809 55.0819 394.675C55.2287 394.675 55.2287 394.675 55.3756 394.675C55.5224 394.675 55.9629 394.675 56.2566 394.675C57.2844 394.675 58.459 394.675 59.4868 394.675C63.0108 394.809 66.6816 394.943 70.2055 395.077C81.5115 395.48 92.6706 396.016 103.977 396.552C126.001 397.491 147.879 398.832 169.904 399.235C190.754 399.637 211.604 400.844 232.454 402.722C233.335 402.722 233.922 402.185 233.922 401.381L235.684 354.977L235.978 348.405C235.978 347.735 235.537 347.198 234.95 347.064C219.386 343.309 203.675 340.224 187.817 337.139C168.435 333.384 148.907 329.897 129.525 326.41C111.171 323.191 92.9643 320.107 74.6104 317.156C67.4157 315.949 60.221 314.474 53.0263 313.669C51.4111 313.535 50.8238 314.474 49.796 315.547C49.5023 315.949 49.0618 316.217 48.7682 316.62C48.3277 317.425 48.1808 318.363 48.4745 319.302C48.6213 323.326 48.6213 327.483 48.4745 331.507C48.1808 350.149 46.5657 368.791 46.7125 387.433C46.7125 389.31 46.7125 391.054 46.8594 392.931C46.7125 394.809 49.5023 394.809 49.5023 393.065Z" fill="black"/>
<path d="M814.345 510.416C799.074 510.819 783.951 511.355 768.827 511.891C749.445 512.562 730.064 513.233 710.682 514.037C690.713 514.708 670.744 515.513 650.922 516.317L600.412 518.195C590.427 518.597 580.296 519 570.312 519.268H568.55L569.871 519.938L568.696 518.195C568.55 517.927 568.403 517.39 568.403 517.793C568.403 518.195 568.55 517.122 568.55 516.988C568.696 515.378 568.696 513.635 568.843 512.026C568.99 508.002 569.137 503.979 569.284 499.955C569.577 490.299 569.577 480.643 569.724 470.852C569.871 450.735 569.577 430.618 568.99 410.5C568.696 403.526 568.109 396.552 567.962 389.578C567.962 388.103 567.669 387.701 569.431 387.164C571.633 386.628 573.835 386.226 576.038 386.091C582.352 385.555 588.519 384.884 594.685 384.214C625.52 381.129 656.501 378.715 687.336 376.033C718.464 373.351 749.592 370.668 780.72 367.181C784.391 366.779 788.062 366.377 791.733 365.84C793.348 365.706 792.907 363.024 791.292 363.158C759.724 366.645 728.008 369.729 696.292 372.412C664.577 375.094 632.862 377.776 601.146 380.861C593.658 381.532 586.169 382.47 578.681 383.141C574.863 383.543 570.018 383.275 566.494 385.287C563.851 386.762 564.585 390.383 564.732 392.797C564.879 396.284 565.172 399.905 565.319 403.392C566.2 423.375 566.494 443.225 566.494 463.208C566.494 481.313 566.053 499.419 565.466 517.658C565.613 519 566.2 520.207 567.228 521.28C567.522 521.682 567.962 521.95 568.55 521.95C577.506 521.682 586.463 521.28 595.42 521.011L644.021 519.134L703.34 516.854C723.016 516.049 742.691 515.378 762.366 514.708C778.224 514.171 794.229 513.635 810.087 513.098L814.638 512.964C815.372 512.83 815.96 512.294 815.813 511.623C815.519 510.953 815.079 510.416 814.345 510.416Z" fill="black"/>
<path d="M51.7043 313.535C43.335 314.876 35.1124 316.352 26.7431 317.156C18.3737 317.961 10.1512 318.497 1.78179 318.632C0.9008 318.632 0.313477 319.302 0.313477 319.973C0.313477 320.643 1.04763 321.314 1.78179 321.314C10.298 321.18 18.961 320.643 27.4772 319.704C35.8466 318.9 44.3628 317.693 52.5853 315.815C54.2005 315.547 53.4663 313.267 51.7043 313.535Z" fill="black"/>
<path d="M7.94843 393.065C14.7027 393.602 21.3101 394.004 28.0643 394.407C34.8185 394.675 41.5727 395.211 48.327 394.943C49.0611 394.809 49.6484 394.004 49.5016 393.334C49.3548 392.797 48.9143 392.395 48.327 392.261C41.5727 391.858 34.8185 391.993 28.0643 391.724C21.3101 391.456 14.5558 391.054 7.94843 390.651C6.18646 390.517 6.18646 393.065 7.94843 393.065Z" fill="black"/>
<path d="M137.014 259.219C137.307 265.656 137.16 272.496 135.398 278.665C135.105 280.409 134.077 281.884 132.609 282.957C130.994 283.896 129.232 284.298 127.323 284.298C123.946 284.164 120.862 282.957 118.513 280.811C115.723 278.397 113.521 275.312 112.052 271.959C110.878 267.534 111.171 262.974 112.933 258.816C114.402 256.67 116.457 254.256 119.394 253.72C122.771 253.049 126.442 254.122 129.672 255.061C132.902 256.268 136.133 257.609 139.216 259.219C139.95 259.621 140.831 259.353 141.272 258.682C141.712 258.012 141.419 257.207 140.684 256.804C137.454 254.927 134.077 253.452 130.406 252.379C127.029 251.172 123.358 250.635 119.688 250.769C116.017 251.172 113.521 253.049 111.465 255.732C109.703 257.877 108.675 260.291 108.528 262.974C107.941 265.656 107.941 268.472 108.528 271.155C109.703 275.044 111.905 278.665 114.989 281.616C117.485 284.432 121.009 286.31 124.973 287.115C128.791 287.785 132.755 286.846 135.545 284.566C138.629 281.75 139.069 276.788 139.51 273.032C140.097 268.472 140.097 263.913 139.803 259.353C139.657 257.475 137.014 257.475 137.014 259.219Z" fill="black"/>
<path d="M138.041 282.018C143.474 279.068 148.319 275.178 152.137 270.618C156.101 266.058 158.891 260.694 160.359 254.927C160.506 254.122 160.065 253.452 159.331 253.183C158.45 253.049 157.716 253.452 157.423 254.122C156.688 256.67 155.661 259.219 154.486 261.767C153.164 264.315 151.696 266.595 149.787 268.875C146.263 273.301 141.712 277.056 136.572 279.872C135.985 280.275 135.692 281.079 136.132 281.616C136.573 282.152 137.453 282.286 138.041 282.018Z" fill="black"/>
<path d="M137.454 259.621C131.434 260.962 125.267 258.682 119.394 260.157C116.898 260.694 114.842 262.035 113.227 263.913C112.052 265.79 111.612 267.936 112.052 270.082C112.346 271.691 115.429 271.289 115.136 269.68C114.695 268.07 114.989 266.327 116.017 264.985C117.632 263.376 119.834 262.571 122.184 262.437C127.47 261.901 132.902 263.644 138.041 262.035C138.776 261.901 139.216 261.23 138.922 260.56C138.922 259.755 138.188 259.353 137.454 259.621Z" fill="black"/>
<path d="M121.742 267.534C122.183 267.4 122.623 267.265 123.064 267.131H122.623C123.064 267.131 123.504 267.131 123.945 267.131C124.679 267.131 125.266 266.595 125.266 265.79C125.266 265.254 124.826 264.717 124.239 264.583C122.917 264.315 121.449 264.583 120.274 265.254C119.98 265.388 119.687 265.656 119.687 266.058C119.54 266.327 119.687 266.729 119.834 266.997C120.274 267.668 121.155 267.802 121.742 267.534Z" fill="black"/>
<path d="M123.358 269.009L123.651 268.875L123.798 268.741L123.945 268.472C124.092 268.338 124.092 268.204 124.092 267.936C124.092 267.802 124.092 267.668 124.092 267.534C124.092 267.4 123.945 267.265 123.945 266.997L123.798 266.729L123.505 266.595C123.358 266.461 123.211 266.461 122.917 266.461C122.77 266.461 122.477 266.461 122.33 266.461H122.183H122.036H121.889C121.743 266.595 121.596 266.595 121.449 266.863C121.302 266.997 121.302 267.131 121.155 267.265C121.155 267.4 121.155 267.668 121.155 267.802C121.155 267.936 121.302 268.07 121.302 268.338L121.449 268.607C121.596 268.741 121.889 268.875 122.036 268.875H122.477C123.064 269.143 123.211 269.143 123.358 269.009Z" fill="black"/>
<path d="M130.993 266.997C131.287 266.997 131.58 266.863 131.874 266.863H131.433C132.168 266.729 133.049 266.729 133.783 266.863H133.342C133.636 266.863 133.93 266.997 134.223 266.997C134.957 266.997 135.545 266.461 135.545 265.924C135.545 265.254 135.251 264.717 134.517 264.583C134.076 264.449 133.636 264.449 133.195 264.449C132.902 264.449 132.608 264.449 132.168 264.449C131.433 264.449 130.699 264.583 129.965 264.717C129.231 264.851 128.791 265.656 129.084 266.193C129.378 266.729 130.259 267.131 130.993 266.997Z" fill="black"/>
<path d="M134.664 266.997C134.664 266.863 134.517 266.729 134.517 266.595C134.371 266.461 134.224 266.193 134.077 266.058C133.636 265.79 133.049 265.79 132.609 266.058C132.462 266.193 132.168 266.327 132.168 266.595C132.021 266.729 132.021 266.863 132.021 266.997C131.874 267.265 131.874 267.534 132.021 267.668C132.021 267.936 132.168 268.07 132.462 268.204L132.755 268.338C133.049 268.472 133.196 268.472 133.49 268.472C133.636 268.472 133.93 268.472 134.077 268.338C134.224 268.338 134.371 268.204 134.517 268.07C134.664 267.936 134.811 267.668 134.958 267.534C134.664 267.534 134.664 267.265 134.664 266.997Z" fill="black"/>
<path d="M126.442 266.595C126.588 267.668 126.882 268.741 127.029 269.814C127.176 270.887 127.469 272.094 127.616 273.166C127.763 273.837 128.497 274.105 129.231 274.105C129.965 273.971 130.553 273.435 130.553 272.764C130.553 272.496 130.553 272.362 130.406 272.094C130.112 271.423 129.231 271.155 128.497 271.423C128.204 271.557 127.91 271.825 127.763 272.094C127.763 272.362 127.763 272.496 127.616 272.764L130.406 272.362C130.259 271.289 129.965 270.082 129.672 269.009C129.378 267.936 129.231 266.863 128.938 265.79C128.791 265.12 128.057 264.717 127.323 264.985C126.735 265.254 126.295 265.924 126.442 266.595Z" fill="black"/>
<path d="M126.735 274.239C127.028 274.374 127.175 274.374 127.469 274.508C127.763 274.508 128.056 274.642 128.203 274.642H128.644H129.231C129.378 274.642 129.525 274.508 129.818 274.508L130.112 274.374C130.259 274.239 130.406 274.105 130.406 273.971C130.406 273.837 130.552 273.703 130.552 273.703C130.552 273.569 130.552 273.301 130.552 273.167L130.406 272.898L130.259 272.63C130.112 272.496 129.965 272.362 129.818 272.362C129.671 272.228 129.525 272.228 129.231 272.228H128.644H128.497H128.937C128.644 272.228 128.497 272.228 128.203 272.228H128.644C128.497 272.228 128.35 272.228 128.056 272.094C127.909 272.094 127.616 272.094 127.469 272.094C127.322 272.094 127.175 272.094 126.882 272.228L126.588 272.362C126.441 272.496 126.294 272.63 126.294 272.764C126.294 272.898 126.147 273.032 126.147 273.032C126.147 273.167 126.147 273.301 126.147 273.569L126.294 273.837C126.441 273.971 126.588 274.105 126.735 274.239Z" fill="black"/>
<path d="M128.35 276.251C127.469 276.251 126.735 276.251 125.854 276.251H123.358C122.477 276.251 121.89 276.922 121.89 277.592C121.89 277.726 121.89 277.995 122.036 278.129C122.477 278.933 123.358 279.604 124.239 279.872C125.12 280.275 126.148 280.275 127.176 280.006C127.91 279.738 128.35 279.068 128.057 278.531C127.91 278.263 127.763 277.995 127.469 277.861C127.176 277.726 126.735 277.726 126.441 277.726H126.882C126.588 277.726 126.148 277.726 125.854 277.726H126.295C126.001 277.726 125.854 277.592 125.56 277.592C125.414 277.592 125.267 277.458 125.707 277.592H125.56C125.414 277.592 125.267 277.458 125.267 277.458L125.12 277.324C125.12 277.324 125.414 277.592 125.267 277.324L124.973 277.056L124.826 276.922L124.679 276.788L123.358 278.799L125.854 278.665C126.735 278.665 127.469 278.531 128.35 278.531C129.084 278.397 129.672 277.861 129.525 277.19C129.525 276.654 129.084 276.251 128.35 276.251Z" fill="black"/>
<path d="M91.6424 240.174C90.174 244.064 89.1462 248.087 88.7057 252.245C88.4121 254.256 88.2652 256.134 87.8248 258.146C87.6779 259.219 86.9438 260.426 87.5311 261.499C88.5589 262.84 89.5867 264.047 90.9082 265.12L94.1385 268.607C96.3409 270.887 98.3966 273.301 100.599 275.581C104.563 279.47 109.409 282.957 115.429 283.493C117.044 283.628 117.485 281.079 115.869 280.945C109.996 280.141 105.738 276.788 101.921 272.898C97.8093 268.607 93.8448 264.181 89.8804 259.889L90.3209 261.23C91.7892 254.525 91.7892 247.416 94.4321 240.979C94.8726 239.37 92.2297 238.699 91.6424 240.174Z" fill="black"/>
<path d="M101.333 320.777C101.774 308.975 102.214 296.637 97.3687 285.371C95.0194 280.14 91.6423 275.312 87.531 271.021C85.4754 268.875 83.4198 266.595 81.2173 264.583C80.1895 263.51 79.4553 262.437 78.868 261.096L79.0148 262.169C81.3641 253.988 83.1261 245.405 86.7969 237.626C87.0905 237.09 87.0905 236.419 86.5032 235.883C85.7691 235.078 84.4476 235.078 83.5666 235.748C83.1261 236.151 82.9793 236.553 82.8324 237.09C82.9793 238.162 83.8603 238.833 85.0349 238.833C85.6222 238.833 86.0627 238.565 86.3564 238.162C87.531 236.821 85.4754 234.944 84.3007 236.285L84.1539 236.419L85.1817 236.017L85.7691 236.419V237.76L85.1817 238.028L84.1539 237.626L84.4476 237.76L84.1539 236.017C81.9515 241.113 80.1895 246.343 78.7212 251.708C77.987 254.39 77.2529 257.073 76.5187 259.755C76.0782 260.56 75.9314 261.498 76.225 262.437C76.6655 263.108 77.106 263.913 77.5465 264.583C78.868 266.729 81.2173 268.472 82.9793 270.35C85.4754 272.898 87.8247 275.581 90.0272 278.397C94.1384 284.03 96.7814 290.467 97.8092 297.307C99.1307 305.086 98.837 312.865 98.6902 320.643C98.837 321.314 99.4243 321.85 100.158 321.716C100.746 321.85 101.333 321.448 101.333 320.777Z" fill="black"/>
<path d="M160.065 254.525C160.653 250.635 159.184 247.014 158.01 243.393C157.569 241.649 157.129 240.04 156.688 238.297C156.541 237.626 156.248 236.821 156.101 236.017C156.101 235.748 155.954 235.48 155.954 235.212C155.954 235.614 155.807 234.541 155.954 234.81C156.101 235.078 155.954 234.81 155.954 234.944L154.926 235.883H155.073L153.458 235.212V235.346C153.899 235.883 154.926 236.017 155.514 235.614C155.954 235.346 156.101 234.81 156.101 234.407V234.273C155.954 233.871 155.514 233.468 155.073 233.334H154.926C154.339 233.2 153.899 233.334 153.458 233.737C152.43 234.81 153.164 236.687 153.458 238.028C153.899 239.772 154.339 241.515 154.78 243.259C155.22 244.734 155.66 246.209 156.248 247.685C157.129 249.83 157.422 252.11 157.422 254.39C157.569 255.597 160.065 256 160.065 254.525Z" fill="black"/>
<path d="M164.765 233.066C166.673 239.369 168.142 245.673 169.17 252.11C169.463 253.586 169.61 254.927 169.757 256.402C169.757 257.341 169.61 258.28 169.17 259.084C168.435 260.828 167.261 262.437 166.527 264.181C165.792 265.924 164.911 268.07 164.03 269.948C161.681 275.044 158.304 279.738 155.221 284.432C151.843 289.394 148.76 294.491 145.97 299.855C142.006 308.573 140.244 318.095 140.831 327.483C140.684 328.288 141.272 328.958 142.153 328.958C143.034 329.093 143.768 328.556 143.768 327.751C143.915 327.215 144.061 326.678 144.208 326.142C144.208 325.337 143.621 324.801 142.74 324.801C142.153 324.801 141.712 325.069 141.418 325.471C141.125 326.008 140.978 326.544 140.831 327.081L143.915 327.483C143.327 318.766 144.796 310.182 148.173 302.001C150.669 296.368 154.34 291.138 157.717 285.907C160.947 281.348 163.737 276.519 166.38 271.557C167.114 269.948 167.848 268.204 168.582 266.595C169.463 264.449 170.785 262.437 171.812 260.291C172.253 259.487 172.4 258.682 172.693 257.877C172.84 256.67 172.693 255.329 172.4 254.122C171.812 250.367 171.078 246.746 170.344 242.991C169.61 239.504 168.729 236.017 167.408 232.53C166.82 231.054 164.177 231.591 164.765 233.2V233.066Z" fill="black"/>
<path d="M155.073 235.212C156.982 234.81 158.891 234.407 160.8 233.871C161.681 233.603 162.709 233.334 163.59 232.932C164.617 232.664 165.645 232.261 166.526 231.591C166.967 231.188 167.114 230.518 166.82 229.981C166.526 229.445 165.792 229.177 165.205 229.311C164.764 229.445 164.177 229.579 163.736 229.847L163.296 229.981L162.709 230.25C161.828 230.652 160.8 230.92 159.919 231.189C158.157 231.725 156.248 232.261 154.486 232.664C153.752 233.066 153.605 233.871 154.046 234.541C154.046 234.944 154.486 235.212 155.073 235.212Z" fill="black"/>
<path d="M157.423 231.725C157.423 229.579 156.542 227.433 155.074 225.69C153.605 224.349 151.843 223.41 149.788 222.739L150.082 224.885C150.816 224.349 150.522 223.276 150.228 222.471L149.935 221.532C149.935 221.398 149.788 221.264 149.788 221.13V220.996C149.935 221.264 149.788 221.666 149.641 221.935L149.054 222.471L148.32 222.605H148.173C148.907 222.873 149.788 222.471 149.935 221.666C150.081 220.996 149.641 220.191 148.907 219.923C148.026 219.655 147.145 220.191 146.998 220.996C146.998 221.13 146.998 221.264 146.998 221.264C146.998 221.666 147.145 221.935 147.292 222.337C147.439 222.739 147.585 223.007 147.732 223.41C147.732 223.544 147.879 223.678 147.879 223.812C147.879 223.946 147.879 224.08 147.879 223.812C147.879 223.544 147.879 223.678 147.879 223.812C147.879 223.544 148.026 223.276 148.32 223.007C147.732 223.544 147.732 224.349 148.32 224.885C148.466 225.019 148.613 225.019 148.613 225.153C150.228 225.69 151.697 226.494 153.018 227.567C154.193 228.909 154.78 230.518 154.927 232.127C155.074 233.468 157.57 233.2 157.423 231.725Z" fill="black"/>
<path d="M148.76 214.826C148.76 216.168 149.2 217.509 149.934 218.582C150.228 219.118 150.522 219.655 150.815 220.191C150.815 220.191 150.815 220.325 150.962 220.325V220.191L151.109 220.593C150.962 220.459 151.109 220.727 151.109 220.593L151.256 220.727C151.403 220.996 151.403 221.264 151.55 221.666C151.843 222.337 152.724 222.605 153.458 222.337C153.899 222.203 154.193 221.8 154.339 221.264C154.046 219.923 153.605 218.716 152.871 217.509L152.431 216.704L152.284 216.302L152.137 216.168C151.99 215.899 151.843 215.631 151.843 215.363L151.696 214.961C151.696 214.826 151.696 214.826 151.696 214.692C151.696 214.022 151.109 213.485 150.375 213.485C149.494 213.619 148.76 214.156 148.76 214.826Z" fill="black"/>
<path d="M151.99 213.351C152.284 214.558 152.724 215.765 153.018 216.972C153.312 218.179 153.459 219.386 153.752 220.593C154.046 221.264 154.927 221.532 155.661 221.264C156.102 221.13 156.395 220.727 156.542 220.191C156.395 218.85 156.248 217.509 155.955 216.302C155.661 215.095 155.221 213.888 154.78 212.681C154.486 212.01 153.752 211.742 153.018 211.876C152.284 212.144 151.99 212.681 151.99 213.351Z" fill="black"/>
<path d="M155.954 212.546C155.954 213.754 156.101 214.961 156.248 216.033C156.248 216.57 156.395 217.106 156.395 217.643C156.395 218.313 156.541 219.118 156.688 219.789C156.982 220.459 157.863 220.728 158.597 220.459C159.038 220.325 159.331 219.923 159.478 219.386C159.478 218.716 159.331 218.179 159.331 217.509L159.184 215.899C159.038 214.692 158.891 213.351 158.597 212.144C158.45 211.608 157.716 211.205 157.129 211.339C156.541 211.474 155.954 212.01 155.954 212.546Z" fill="black"/>
<path d="M159.772 215.363C160.213 216.704 160.36 218.045 160.36 219.52C160.36 220.727 160.213 221.398 160.066 222.471C159.919 223.544 159.919 224.751 160.066 225.824C160.213 227.433 160.8 229.043 161.681 230.384C161.975 231.054 162.856 231.457 163.59 231.188C164.324 230.92 164.765 230.116 164.471 229.311C164.177 228.506 163.737 227.701 163.59 226.897C163.003 225.422 162.856 223.678 163.149 222.069C163.59 219.52 163.296 217.106 162.562 214.558C162.268 213.888 161.534 213.485 160.8 213.754C160.066 214.022 159.625 214.692 159.772 215.363Z" fill="black"/>
<path d="M85.182 237.492C86.3567 238.028 87.5313 238.699 88.5592 239.369L89.2933 239.906L89.7338 240.174L89.8806 240.308C90.1743 240.442 90.468 240.711 90.6148 240.845C90.7616 240.979 91.0553 241.113 91.2021 241.247C91.6426 241.515 92.0831 241.515 92.5236 241.381C93.1109 241.247 93.5514 240.711 93.5514 240.174C93.5514 239.101 92.5236 238.565 91.6426 238.028C91.0553 237.626 90.468 237.358 90.0275 236.955C88.8528 236.285 87.6782 235.748 86.5035 235.212C85.7694 234.944 84.8884 235.346 84.5947 236.017C84.5947 236.553 84.7416 237.09 85.182 237.492Z" fill="black"/>
<path d="M87.0911 221.13C86.2101 223.678 86.0632 226.36 86.5037 228.909C86.6506 230.116 86.6506 231.188 86.5037 232.396C86.3569 232.932 86.3569 233.334 86.0632 233.871C85.7696 234.407 85.4759 235.078 85.3291 235.614C85.1823 236.151 85.4759 236.687 85.7696 236.955C86.2101 237.224 86.7974 237.358 87.3847 237.09C88.5594 236.151 89.1467 234.81 89.2935 233.468C89.4404 232.261 89.5872 230.92 89.4404 229.713C89.2935 227.031 88.7062 224.349 89.734 221.666C89.8808 220.996 89.4404 220.325 88.853 220.191C88.1189 220.191 87.5316 220.459 87.0911 221.13Z" fill="black"/>
<path d="M91.2018 220.191C90.9081 220.996 90.7613 221.935 90.4676 222.873C90.3208 223.276 90.3208 223.678 90.1739 224.214C89.8803 224.885 89.8803 225.422 90.0271 226.092C90.1739 226.629 90.6144 226.897 91.2018 227.031C91.7891 227.165 92.3764 226.897 92.6701 226.36C92.9637 225.958 93.1106 225.421 93.1106 224.885C93.2574 224.483 93.2574 223.946 93.4042 223.544C93.551 222.605 93.6979 221.8 93.8447 220.862C93.9915 220.593 93.8447 220.191 93.6979 219.923C93.5511 219.655 93.2574 219.386 92.8169 219.386C92.0827 219.118 91.3486 219.52 91.2018 220.191Z" fill="black"/>
<path d="M94.5791 220.459C94.1386 221.264 93.6981 222.069 93.4045 222.739L92.8172 223.946L92.5235 224.483C92.3767 224.617 92.3767 224.885 92.2298 225.019C92.083 225.153 92.083 225.422 92.083 225.69C92.083 225.958 92.2298 226.092 92.2298 226.36C92.3767 226.629 92.6703 226.763 92.964 226.897C93.5513 227.165 94.1386 227.031 94.5791 226.629C94.8728 226.226 95.1665 225.824 95.3133 225.287L95.9006 224.08C96.1943 223.544 96.3411 223.142 96.4879 222.739C96.4879 222.605 96.4879 222.605 96.6348 222.471C96.6348 222.337 96.7816 222.337 96.6348 222.471L96.7816 222.337L97.0753 221.8C97.2221 221.532 97.3689 221.13 97.2221 220.862C97.0753 220.191 96.1943 219.789 95.4601 220.057C95.0196 220.057 94.726 220.191 94.5791 220.459Z" fill="black"/>
<path d="M97.0756 222.739C96.6351 223.41 96.1946 223.946 95.6073 224.617L94.8731 225.556C94.7263 225.69 94.5794 225.824 94.4326 225.958C94.4326 226.092 94.2858 226.092 94.2858 226.226C94.139 226.629 93.9921 227.031 94.1389 227.299C94.2858 227.567 94.4326 227.97 94.8731 228.104L95.1668 228.238C95.4604 228.238 95.7541 228.238 95.9009 228.238C96.6351 228.104 97.0756 227.433 97.3692 226.897L97.9566 225.958C98.397 225.287 98.8375 224.751 99.278 224.08C99.4249 223.812 99.5717 223.41 99.4249 223.142C99.1312 222.471 98.397 222.069 97.6629 222.203C97.5161 222.203 97.2224 222.471 97.0756 222.739Z" fill="black"/>
<path d="M97.9566 228.238C98.1034 227.97 97.8097 228.372 97.8097 228.372L97.5161 228.64C97.5161 228.64 97.2224 228.909 97.3692 228.774C97.3692 228.909 97.2224 228.909 97.0756 229.043C96.9287 229.177 96.7819 229.311 96.4883 229.579C96.1946 229.713 96.6351 229.579 96.3414 229.713L96.0478 229.981L95.7541 230.116C95.4604 230.25 95.9009 230.116 95.6073 230.116L94.8731 230.25C94.2858 230.384 93.6985 230.518 93.1111 230.786C91.9365 231.457 91.2023 232.53 90.9087 233.737C90.9087 234.005 90.7618 234.273 90.615 234.407C90.615 234.541 90.4682 234.675 90.615 234.541C90.615 234.675 90.4682 234.81 90.4682 234.944C90.1745 235.48 89.8809 235.882 89.4404 236.419C88.9999 237.09 89.2935 238.028 90.0277 238.431C90.615 238.833 91.496 238.699 91.9365 238.162C92.9643 237.224 93.5516 236.017 93.9921 234.81C93.9921 234.541 94.1389 234.273 94.1389 234.005L94.2858 233.603L94.4326 233.468C94.5794 233.334 94.4326 233.468 94.2858 233.468L94.4326 233.334C94.4326 233.334 94.8731 233.2 94.7263 233.2C94.5794 233.2 95.0199 233.2 95.0199 233.2C96.1946 232.932 97.3692 232.396 98.397 231.725C99.278 230.92 100.012 229.981 100.453 228.909C100.6 228.238 100.159 227.567 99.4249 227.299C98.8375 227.031 98.1034 227.433 97.9566 228.238Z" fill="black"/>
<path d="M711.856 299.721C692.328 288.322 671.918 278.397 651.949 267.668C647.251 265.12 642.699 262.437 638 259.889C635.651 258.548 633.155 257.743 630.365 257.609C627.869 257.609 625.373 257.877 623.023 258.414C620.527 259.084 617.884 259.487 615.241 259.755C614.067 259.889 612.892 259.755 611.864 259.487C611.277 259.353 610.69 259.084 610.249 258.816C610.102 258.682 609.662 258.548 609.515 258.414C609.221 257.877 609.515 258.012 609.956 257.877C610.983 257.609 612.158 257.743 613.333 257.609C614.654 257.341 615.829 256.804 616.857 256.134C617.884 255.597 618.765 254.793 619.5 253.854C620.087 253.049 619.94 251.976 619.206 251.172C616.71 247.282 610.396 247.148 606.138 247.685C600.705 248.489 595.566 250.233 589.986 250.903L591.014 251.306L588.812 248.892L588.518 251.038C595.566 246.209 604.082 243.393 612.892 242.856C617.15 242.588 621.408 242.856 625.666 243.661C630.659 245.002 635.357 246.88 639.909 249.294C656.207 257.207 672.359 265.254 689.097 272.362C698.054 276.251 707.158 279.604 716.702 282.152C717.583 282.286 718.317 281.884 718.61 281.213C718.757 280.409 718.317 279.738 717.583 279.47C699.522 274.239 682.343 266.461 665.604 258.414C657.382 254.525 649.306 250.501 641.23 246.612C636.826 244.332 632.127 242.454 627.282 241.113C623.17 240.174 618.912 239.772 614.654 240.04C604.67 240.308 595.126 243.393 587.05 248.892C586.463 249.428 586.463 250.367 587.05 250.903C588.078 252.11 589.106 253.854 590.867 253.72C594.098 253.317 597.181 252.647 600.265 251.842C603.201 251.038 606.138 250.501 609.221 250.233C612.011 250.099 616.269 250.501 617.297 253.317L617.444 252.245C615.976 253.988 613.773 255.061 611.277 255.061C609.662 255.195 607.9 255.195 606.872 256.402C604.523 259.487 610.102 261.767 612.598 262.169C616.416 262.706 620.381 261.633 624.198 260.828C626.107 260.426 628.163 260.157 630.218 260.157C632.714 260.291 635.064 261.096 637.119 262.437C652.683 271.155 668.688 279.47 684.546 287.785C693.209 292.345 701.872 297.039 710.535 301.867C711.856 302.538 713.325 300.392 711.856 299.721Z" fill="black"/>
<path d="M596.741 243.795C595.567 243.661 594.245 243.393 593.071 243.125C592.483 242.991 591.896 242.856 591.309 242.722C591.162 242.722 591.015 242.588 590.721 242.588C590.721 242.856 590.721 242.991 590.868 242.856L591.015 242.722C591.602 242.588 592.043 242.32 592.63 242.186C593.364 242.052 594.098 241.918 594.833 241.918C599.384 241.515 603.936 241.918 608.341 242.856C610.103 243.259 610.984 240.711 609.075 240.308C603.642 238.967 597.916 238.833 592.336 239.638C590.281 240.04 587.197 241.113 588.078 243.661C588.519 245.002 589.987 245.271 591.309 245.539C592.924 245.941 594.539 246.209 596.154 246.343C597.916 246.343 598.21 244.064 596.741 243.795Z" fill="black"/>
<path d="M599.678 239.906C605.992 238.431 612.452 240.577 618.472 242.454C620.234 242.991 620.968 240.442 619.206 239.906C612.893 238.028 605.698 235.48 598.944 237.492C598.21 237.626 597.769 238.431 598.063 238.967C598.356 239.504 598.944 240.174 599.678 239.906Z" fill="black"/>
<path d="M254.478 203.963C279.586 217.241 305.869 228.64 329.215 244.6C330.83 245.673 332.445 243.259 330.83 242.052C319.377 234.273 307.19 227.299 294.71 220.996C281.935 214.424 269.014 207.852 255.799 201.817C254.331 201.013 253.01 203.158 254.478 203.963Z" fill="black"/>
<path d="M254.919 203.427C282.964 204.097 311.155 204.5 339.2 205.707L338.025 203.158L327.16 211.876L321.727 216.302C320.259 217.241 319.231 218.716 318.79 220.325C318.643 222.203 319.818 223.812 320.699 225.422C321.727 227.299 322.755 229.177 323.636 231.189C325.691 235.212 327.453 239.235 329.362 243.393C330.096 245.136 333.18 244.466 332.446 242.588L330.684 238.162C329.949 236.419 327.013 237.224 327.747 238.833L329.362 243.259L332.446 242.454C330.977 238.967 329.362 235.48 327.747 232.127C326.866 230.384 325.985 228.64 325.104 226.897C323.929 225.153 323.048 223.276 322.167 221.398C321.727 220.459 322.021 219.52 322.902 218.984C323.636 218.313 324.37 217.777 325.104 217.106L329.949 213.217L340.081 205.17C340.668 204.634 340.668 203.695 340.081 203.024C339.787 202.756 339.347 202.622 339.053 202.622C311.008 201.549 282.817 200.476 254.772 200.744C253.891 200.744 253.304 201.281 253.304 202.086C253.304 202.89 253.891 203.427 254.772 203.427H254.919Z" fill="black"/>
<path d="M258.296 202.89C258.002 203.158 257.855 203.293 257.561 203.561C256.974 204.097 257.121 205.036 257.708 205.438C257.855 205.572 258.002 205.573 258.149 205.707C262.994 206.914 268.133 207.584 272.979 208.523C277.824 209.462 283.11 210.669 288.102 212.01C298.087 214.558 307.778 217.509 317.468 220.862C319.377 221.532 320.111 218.716 318.349 218.179C308.659 214.692 298.821 211.742 288.69 209.194C283.844 207.987 278.852 206.78 273.86 205.841C268.867 204.634 263.728 203.695 258.442 203.158L259.47 205.304C259.617 205.036 259.911 204.902 260.204 204.634C260.645 204.097 260.645 203.293 260.058 202.89C259.617 202.354 258.883 202.354 258.296 202.89Z" fill="black"/>
<path d="M720.52 278.263C719.051 284.432 716.996 290.601 714.059 296.368C713.325 297.71 712.591 299.185 711.857 300.526C711.416 301.465 710.829 302.404 710.241 303.208C709.948 303.611 709.507 303.879 709.067 304.013C708.626 304.281 708.626 304.147 708.48 303.477C708.333 302.269 709.214 301.062 708.92 299.721C708.626 297.978 705.69 297.844 705.69 299.721C705.837 301.331 704.809 302.806 705.249 304.415C705.543 305.891 706.718 306.964 708.333 307.232C711.71 307.5 713.472 304.013 714.646 301.733C718.611 294.491 721.401 286.846 723.016 278.933C723.603 277.458 720.96 276.653 720.52 278.263Z" fill="black"/>
<path d="M718.757 281.884L718.317 282.018H717.876C718.317 282.018 718.757 281.884 719.051 281.616L719.198 281.482C719.344 281.348 719.491 281.213 719.638 281.079L720.519 280.275C720.96 279.738 721.4 279.336 721.987 278.933H719.785C720.079 279.202 720.225 279.47 720.519 279.604C721.106 280.14 722.134 280.14 722.721 279.604C723.015 279.336 723.162 278.933 723.162 278.665C723.162 278.263 723.015 277.995 722.721 277.592C722.428 277.324 722.281 277.056 721.987 276.788C721.694 276.519 721.253 276.385 720.813 276.385C720.372 276.385 720.079 276.519 719.638 276.788C719.344 276.922 719.198 277.19 719.051 277.324L718.317 278.129L717.582 278.933L717.142 279.336L716.995 279.47C716.701 279.738 716.555 280.14 716.555 280.543V280.14L716.701 279.872C716.261 280.409 716.261 281.213 716.701 281.75C716.995 282.018 717.289 282.152 717.729 282.152C718.17 282.152 718.463 282.018 718.757 281.884Z" fill="black"/>
<path d="M707.598 301.465L708.479 300.928C708.332 300.928 708.185 301.062 708.038 301.062C707.892 301.197 707.745 301.331 707.598 301.465V301.599C707.451 301.733 707.451 301.867 707.451 302.001V302.404C707.451 302.672 707.451 302.94 707.745 303.208C707.892 303.477 708.185 303.611 708.332 303.745L708.479 303.879L708.185 303.611L707.892 303.342L707.745 302.94V302.538V302.672V302.27C707.745 302.404 707.745 302.404 707.598 302.538L707.745 302.135C707.745 302.135 707.745 302.135 707.745 302.27C707.598 302.404 707.598 302.672 707.598 302.806C707.598 302.94 707.598 303.208 707.598 303.342C707.745 303.745 708.039 304.013 708.332 304.147L708.773 304.281C709.066 304.415 709.36 304.415 709.654 304.281L710.094 304.147C710.388 304.013 710.535 303.879 710.681 303.611C710.828 303.477 710.828 303.342 710.975 303.074C710.975 302.94 711.122 302.806 711.122 302.538C711.122 302.001 710.828 301.465 710.388 301.197C710.094 301.062 709.8 300.928 709.507 300.928H709.36H709.8L710.241 301.062L710.535 301.331L710.828 301.599L710.975 302.001V302.404V302.806C710.975 302.672 710.975 302.672 710.975 302.538C710.975 302.404 710.975 302.135 710.975 302.001C710.975 301.867 710.975 301.599 710.828 301.465L710.535 301.197C710.388 301.062 710.241 300.928 710.094 300.928C709.947 300.928 709.8 300.794 709.654 300.794C709.507 300.794 709.213 300.794 709.066 300.794L708.626 300.928C708.332 301.062 708.185 301.197 708.038 301.465C707.892 301.733 707.745 302.135 707.745 302.404C707.745 302.538 707.745 302.672 707.745 302.806C707.892 303.208 708.185 303.477 708.479 303.745C708.773 303.879 709.066 304.013 709.36 304.013H709.507H709.066L708.626 303.879L708.332 303.611L708.038 303.342L707.892 302.94V302.538V302.135V302.27L708.038 301.867V302.001L710.828 303.074C710.975 302.806 710.975 302.672 710.975 302.404C710.975 302.269 710.975 302.135 710.975 302.001C710.975 301.867 710.975 301.867 710.828 301.867C710.828 301.733 710.828 301.733 710.681 301.733C710.535 301.465 710.241 301.331 710.094 301.197L709.654 301.062L709.947 301.197L710.241 301.331L710.535 301.599L710.681 301.867V302.27C710.681 302.135 710.681 302.001 710.681 301.867V302.27C710.681 302.27 710.681 302.269 710.681 302.135C710.681 302.001 710.681 301.733 710.535 301.599C710.535 301.465 710.388 301.331 710.388 301.331L710.241 301.197L710.535 302.404V302.27C710.535 302.135 710.535 302.001 710.535 301.733C710.535 301.599 710.535 301.465 710.388 301.197L710.094 300.928C709.947 300.794 709.8 300.66 709.654 300.66C709.507 300.66 709.507 300.526 709.36 300.526C709.213 300.526 709.066 300.526 708.773 300.526L708.479 300.66C708.039 301.062 707.892 301.197 707.598 301.465Z" fill="black"/>
<path d="M721.548 279.202C725.512 281.079 730.504 281.75 734.762 282.42C739.314 283.225 743.866 283.762 748.564 284.164C750.62 284.298 750.62 281.348 748.564 281.213C744.16 280.945 739.901 280.409 735.643 279.604C733.147 279.202 730.651 278.799 728.155 278.129C726.393 277.861 724.778 277.324 723.163 276.653C721.401 275.983 719.786 278.397 721.548 279.202Z" fill="black"/>
<path d="M706.864 306.829C708.773 307.634 710.682 308.171 712.737 308.707C715.38 309.378 718.023 310.048 720.666 310.719C725.365 311.792 730.063 312.731 734.615 314.34C736.671 315.01 737.552 312.06 735.496 311.389C730.944 310.048 726.393 308.841 721.694 307.902C717.142 306.829 712.444 305.622 707.892 304.549C706.424 304.147 705.396 306.159 706.864 306.829Z" fill="black"/>
<path d="M536.1 50.9377C560.914 50.1331 585.728 49.1943 610.543 48.5237C617.444 48.1213 624.345 48.6578 631.099 49.9989C631.98 50.2672 632.861 49.7307 633.155 48.926C633.448 48.1213 632.861 47.3166 631.98 47.0484C620.234 44.0979 607.606 45.5731 595.713 45.9755L557.537 47.3166L536.1 48.1213C534.191 48.1213 534.191 50.9377 536.1 50.9377Z" fill="black"/>
<path d="M535.365 48.1213C533.31 45.7072 534.191 42.0861 535.953 39.8062C538.302 36.9898 542.413 35.9168 546.084 35.7827C549.608 35.6486 554.013 37.1239 556.803 34.7098C559.152 32.564 559.593 29.2111 560.767 26.5288C563.557 20.4936 567.962 15.2631 573.542 11.3738C576.478 9.36205 579.562 7.61855 582.939 6.2774C586.609 4.93625 591.014 3.59509 594.979 4.26567C604.67 6.00917 606.578 16.8725 607.606 24.2488C607.753 25.4559 609.515 26.5288 610.543 25.3217C613.186 22.2371 617.884 21.5665 621.555 23.7124C624.932 26.1264 625.52 30.5522 623.024 33.771C622.289 34.7098 622.583 36.5874 624.198 36.4533C627.282 36.1851 629.925 34.978 632.861 34.1733C634.917 33.6369 637.854 33.2345 639.615 34.7098C641.818 36.7215 639.175 40.6109 638 42.4885C636.826 44.3661 634.036 47.1825 631.099 45.5731C630.218 45.1708 629.19 45.5731 628.897 46.3778C628.603 47.0484 628.75 47.8531 629.484 48.2554C632.861 50.133 637.119 48.7919 639.469 46.1096C640.79 44.6343 641.818 43.0249 642.552 41.2814C643.58 39.5379 644.167 37.3921 643.874 35.3804C643.286 32.1616 639.909 30.4181 636.385 30.284C631.98 30.0158 628.456 32.6981 624.198 33.1004L625.373 35.7827C629.484 31.491 629.044 25.0535 624.345 21.2983C619.646 17.5431 612.599 17.9454 608.487 22.2371C608.34 22.3712 608.194 22.6394 608.047 22.7736L610.983 23.8465C609.809 15.9337 608.194 6.94797 600.118 2.52217C592.63 -1.6354 582.939 1.8516 576.038 5.60682C568.99 9.36205 563.263 14.8608 559.299 21.4324C558.418 23.0418 557.537 24.6512 556.95 26.2606C556.509 28.1382 555.775 29.8817 554.894 31.491C553.573 33.3687 550.93 32.564 548.874 32.4298C546.671 32.2957 544.469 32.4298 542.413 32.8322C538.008 33.5028 534.191 35.9168 531.988 39.538C530.08 42.8908 530.52 46.9143 533.016 49.8648C534.338 51.3401 536.54 49.3284 535.365 48.1213Z" fill="black"/>
<path d="M304.841 146.696C326.132 146.428 347.569 146.696 368.86 147.367C370.915 147.501 370.915 144.55 368.86 144.55C347.569 143.745 326.132 143.611 304.841 143.88C303.96 144.014 303.373 144.684 303.373 145.489C303.52 146.025 304.107 146.696 304.841 146.696Z" fill="black"/>
<path d="M304.254 143.343C300.142 139.051 304.401 133.284 309.246 131.809C315.413 129.932 321.727 132.212 327.306 134.491C328.187 134.894 329.215 134.626 329.655 133.821C329.655 133.687 329.802 133.687 329.802 133.553C333.033 126.176 338.612 119.739 345.807 115.313C349.478 112.899 353.736 111.155 358.288 110.351C360.637 109.814 363.133 110.351 364.895 111.826C366.363 113.033 366.951 114.911 366.07 116.654C365.189 118.129 367.538 119.873 368.713 118.532C373.117 113.704 382.221 113.033 386.92 117.995C391.618 122.958 389.856 130.87 384.13 134.089C382.515 135.028 383.542 137.442 385.451 136.906C386.773 136.503 387.36 138.515 386.92 139.454C386.185 141.063 383.542 141.6 381.927 141.734C376.788 142.27 371.649 142.136 366.51 141.6C364.308 141.465 364.308 144.55 366.51 144.684C370.621 145.087 374.733 145.087 378.844 144.952C381.927 144.818 385.304 144.684 387.947 142.941C390.15 141.6 391.031 139.051 390.15 136.771C389.416 134.626 387.066 133.284 384.57 133.821L385.892 136.637C393.233 132.346 395.289 122.153 389.563 115.984C383.836 109.814 371.943 109.948 366.363 116.252L369.006 118.129C371.355 114.106 368.566 109.278 364.161 107.803C358.581 105.925 352.267 108.339 347.422 110.887C337.878 115.715 330.39 123.494 326.572 132.748L329.068 131.809C321.873 128.859 313.504 126.042 305.869 129.797C299.849 132.748 297.059 140.393 301.904 145.355C303.373 146.562 305.575 144.684 304.254 143.343Z" fill="black"/>
<path d="M332.739 222.203C362.399 217.643 395.436 212.949 422.893 227.433C433.759 233.2 443.009 242.186 447.414 253.049C449.617 258.146 450.351 263.644 449.47 269.009C448.442 274.105 445.065 278.799 439.192 279.604C432.731 280.543 425.683 277.324 421.425 273.032C416.433 267.936 416.433 260.962 418.488 254.659C422.012 244.064 430.822 235.748 441.1 230.384C452.994 224.08 466.796 222.069 480.304 222.605C488.086 223.007 495.868 224.08 503.357 225.824C509.964 227.165 516.425 228.909 522.738 231.054C544.469 238.699 564.438 251.842 588.225 253.317C591.015 253.452 593.805 253.452 596.594 253.183C598.797 253.049 598.797 249.83 596.594 250.099C583.673 251.306 570.752 247.282 559.006 242.856C547.553 238.431 536.834 232.932 525.381 228.64C518.921 226.36 512.313 224.483 505.559 223.142C497.63 221.264 489.408 220.191 481.185 219.655C466.796 218.85 452.26 220.996 439.632 227.567C428.62 233.2 419.369 242.052 415.405 253.049C413.203 259.219 412.615 266.461 416.433 272.228C420.104 277.458 425.83 281.079 432.437 282.42C438.898 283.762 445.358 282.152 449.323 277.19C452.7 272.898 453.581 267.265 452.994 262.035C451.672 249.965 443.89 238.833 433.906 231.054C409.238 211.876 374.586 213.217 344.486 217.643C340.227 218.313 335.969 218.984 331.858 219.655C330.243 220.057 330.977 222.471 332.739 222.203Z" fill="black"/>
<path d="M719.345 212.949C717.436 216.436 717.289 220.325 716.555 224.214C715.968 227.701 714.499 231.054 712.15 234.005C710.975 235.346 709.801 236.553 708.479 237.626C707.451 238.565 705.689 239.37 705.689 240.845C705.689 242.32 707.305 243.527 708.479 244.6C710.388 245.941 711.563 248.087 711.269 250.367C710.829 254.122 711.416 257.877 713.031 261.364C715.674 266.997 722.722 267.265 728.448 268.204C737.111 269.948 744.306 275.581 747.389 283.091C748.124 284.835 751.207 284.03 750.473 282.286C747.83 275.849 742.691 270.484 735.937 267.265C733 266.058 729.77 265.254 726.686 264.851C723.896 264.449 720.666 264.181 718.17 262.571C715.087 260.56 714.499 256.268 714.352 253.049C714.206 250.099 715.087 247.551 713.178 245.002C712.003 243.527 710.535 242.32 709.067 241.113C708.92 240.979 708.92 240.845 708.773 240.711C708.626 241.247 709.801 240.174 709.801 240.174C711.269 238.967 712.591 237.76 713.765 236.419C716.408 233.603 718.17 230.384 719.051 226.763C720.079 222.471 719.932 217.911 721.841 213.888C722.428 212.681 719.932 211.742 719.345 212.949Z" fill="black"/>
<path d="M720.079 214.022C721.988 214.961 723.897 216.033 725.806 217.106C727.421 218.313 728.889 219.789 730.064 221.398C731.238 223.142 732.119 225.019 732.854 226.897C733.441 228.909 734.322 230.652 735.79 232.261C737.405 233.737 739.461 233.2 741.223 232.396C742.985 231.591 746.215 229.981 747.096 232.53C748.271 236.553 745.481 242.454 740.342 242.052C738.433 241.918 738.433 244.6 740.342 244.734C746.068 245.271 749.592 240.442 750.18 235.748C750.473 233.737 750.473 231.188 748.858 229.713C747.096 228.238 744.453 227.836 742.251 228.909C741.223 229.311 739.02 230.92 737.993 230.384C736.965 229.847 736.377 227.567 735.937 226.629C735.203 224.349 734.175 222.203 732.854 220.191C731.532 218.313 729.917 216.57 728.008 215.095C726.099 213.485 723.75 212.278 721.254 211.608C720.52 211.474 719.786 211.876 719.639 212.546C719.345 213.083 719.639 213.619 720.079 214.022Z" fill="black"/>
<path d="M743.572 242.32C740.782 251.44 740.195 261.633 745.627 269.948C747.83 273.435 750.913 276.251 754.584 278.263C758.842 280.275 763.247 282.018 767.799 283.225C772.497 284.7 777.343 285.907 781.895 287.785C783.803 288.59 785.565 289.529 787.327 290.467C789.089 291.406 790.998 291.943 792.76 292.747C795.55 294.223 797.018 297.441 798.046 300.124C799.221 303.342 800.249 306.561 800.836 309.914C802.598 317.827 803.479 326.008 803.479 334.055C803.479 334.859 804.066 335.396 804.947 335.396C805.828 335.396 806.415 334.859 806.415 334.055C806.709 327.081 806.122 320.107 804.8 313.133C803.626 306.829 802.304 299.855 798.633 294.223C797.752 292.881 796.725 291.674 795.403 290.736C793.788 289.797 792.173 288.992 790.411 288.456C788.502 287.651 786.887 286.578 784.978 285.773C782.776 284.835 780.426 283.896 778.224 283.225C773.672 281.75 769.12 280.543 764.715 279.068C760.311 277.592 755.612 275.849 752.235 272.764C743.425 264.986 743.425 252.781 746.362 242.722C746.508 242.052 746.068 241.381 745.334 241.113C744.6 241.247 743.865 241.649 743.572 242.32Z" fill="black"/>
<path d="M721.694 210.669C720.078 207.182 726.392 204.634 728.888 203.695C734.027 201.817 739.46 200.61 745.04 200.476C751.06 200.342 757.08 201.549 762.659 203.829C768.239 206.109 773.525 209.328 776.902 214.022C784.39 224.483 783.509 237.894 785.859 249.831C787.033 256.134 789.383 262.169 792.76 267.668C796.431 273.703 800.689 279.202 804.213 285.237C807.296 290.736 809.058 296.637 809.352 302.806C809.792 308.573 809.058 314.876 805.387 319.839C804.213 321.448 807.002 322.923 808.177 321.314C811.701 316.62 812.729 310.719 812.729 305.22C812.729 299.319 811.554 293.552 809.205 288.053C806.415 281.616 801.863 275.849 797.899 269.948C793.641 263.913 790.704 257.207 789.089 250.099C786.446 237.358 787.621 222.873 778.958 211.742C774.993 207.048 769.707 203.427 763.687 201.281C757.667 198.867 751.207 197.66 744.746 197.794C738.139 198.062 731.678 199.537 725.805 202.22C721.84 203.963 716.701 207.584 719.344 212.144C720.078 213.485 722.281 212.144 721.694 210.669Z" fill="black"/>
<path d="M757.374 278.263C754.878 280.543 751.941 282.42 748.857 284.03C747.095 284.835 746.068 284.835 745.774 286.712C745.48 288.59 745.04 290.065 744.599 291.674C742.691 298.38 739.901 304.684 736.083 310.585C732.559 316.217 729.035 321.716 730.063 328.556C730.944 334.994 733.587 341.431 735.936 347.466C738.579 354.172 741.369 361.012 741.222 368.12C741.369 368.925 742.103 369.595 742.984 369.461C743.718 369.327 744.453 368.791 744.453 368.12C744.453 357.391 738.873 347.466 735.643 337.542C733.734 331.909 731.825 326.142 734.028 320.375C736.083 315.01 740.048 310.316 742.691 305.22C745.627 299.319 747.83 293.016 748.857 286.578L748.123 287.383C752.381 285.773 756.199 283.225 759.282 280.141C759.87 279.604 759.87 278.799 759.282 278.397C758.842 277.726 757.961 277.726 757.374 278.263Z" fill="black"/>
<path d="M756.787 293.954C752.235 309.243 751.207 325.203 753.85 340.895C754.144 342.37 756.787 341.968 756.64 340.492C754.291 325.203 755.318 309.512 759.43 294.491C759.577 293.82 759.136 293.15 758.402 293.016C757.668 293.016 757.08 293.418 756.787 293.954Z" fill="black"/>
<path d="M774.994 294.625C779.105 301.331 781.748 308.707 782.629 316.352C783.657 323.996 783.364 331.641 783.657 339.285C783.804 339.956 784.685 340.492 785.419 340.358C786.006 340.224 786.447 339.822 786.594 339.285C787.034 331.238 786.594 323.326 785.419 315.413C784.391 307.634 781.602 300.124 777.343 293.418C776.903 292.881 776.022 292.747 775.435 293.15C774.994 293.418 774.701 294.088 774.994 294.625Z" fill="black"/>
<path d="M756.64 342.37C761.339 341.833 765.89 341.431 770.589 341.029C772.938 340.895 775.287 340.626 777.637 340.492C779.986 340.492 782.189 340.224 784.538 339.956C786.3 339.688 785.712 337.408 784.097 337.408C781.748 337.408 779.399 337.542 777.049 337.81C774.7 337.944 772.351 338.212 770.002 338.346C765.45 338.749 760.751 339.285 756.199 339.822C754.878 340.09 755.172 342.504 756.64 342.37Z" fill="black"/>
<path d="M760.604 340.626C760.604 343.041 761.045 345.455 761.779 347.869C762.22 349.88 762.66 351.758 762.954 353.77C763.248 355.916 763.394 358.061 763.688 360.207C763.982 362.353 763.688 364.499 763.982 366.511C764.129 367.181 765.009 367.718 765.744 367.449C766.331 367.315 766.625 366.913 766.771 366.511C766.918 364.365 766.918 362.219 766.625 360.207C766.478 358.061 766.184 355.916 765.89 353.77C765.597 351.624 765.303 349.88 764.716 347.869C763.982 345.589 763.541 343.041 763.394 340.626C763.394 339.017 760.751 339.017 760.604 340.626Z" fill="black"/>
<path d="M782.188 338.883C782.188 343.175 782.629 347.332 783.363 351.49C784.097 355.647 784.391 359.939 784.391 364.231C784.391 366.108 787.181 365.974 787.328 364.231C787.915 360.073 787.034 355.647 786.3 351.624C785.419 347.466 784.978 343.175 784.831 338.883C784.538 338.212 783.804 337.81 782.923 338.078C782.629 338.212 782.335 338.481 782.188 338.883Z" fill="black"/>
<path d="M718.758 227.97H719.051H719.639C720.079 227.97 720.373 227.97 720.813 227.97H721.401C721.254 227.97 721.694 227.97 721.401 227.97H721.694C722.135 227.97 722.429 228.104 722.869 228.238L723.456 228.372C723.456 228.372 723.897 228.506 723.75 228.506C724.044 228.64 724.337 228.774 724.778 228.908C725.072 229.043 725.365 229.311 725.806 229.445L726.099 229.579L726.246 229.713L726.393 229.847L726.834 230.116C727.421 230.518 728.302 230.25 728.742 229.713C729.036 229.177 729.036 228.506 728.449 228.104C727.274 226.897 725.659 226.092 723.897 225.556C722.135 225.019 720.226 225.019 718.464 225.422C717.73 225.69 717.29 226.36 717.436 227.031C717.29 227.567 718.024 227.97 718.758 227.97Z" fill="black"/>
<path d="M720.226 230.25C720.226 230.518 720.226 230.786 720.226 231.054C720.226 231.188 720.373 231.323 720.373 231.591L720.226 231.323V230.92C720.226 231.188 720.226 231.457 720.373 231.591C720.52 231.725 720.52 231.859 720.666 231.859C720.813 231.993 720.96 232.127 721.107 232.127C721.254 232.261 721.547 232.396 721.841 232.396H721.988C722.135 232.396 722.428 232.396 722.575 232.396C722.869 232.396 723.309 232.261 723.603 232.127C723.897 231.993 724.19 231.725 724.337 231.457C724.484 231.054 724.631 230.652 724.484 230.25V230.116C724.484 229.981 724.337 229.847 724.337 229.713C724.19 229.579 724.19 229.445 724.044 229.311L723.897 229.177C723.75 229.043 723.603 228.909 723.456 228.909L722.869 228.64H722.575C722.428 228.64 722.135 228.64 721.988 228.64C721.547 228.64 721.107 228.774 720.813 228.909C720.666 229.043 720.52 229.043 720.373 229.311C720.226 229.445 720.226 229.579 720.079 229.713C720.079 229.847 720.079 230.116 720.079 230.25C720.079 230.384 720.226 230.652 720.226 230.786C720.373 231.054 720.666 231.323 721.107 231.457C721.547 231.591 721.841 231.457 722.282 231.323H722.428L722.135 231.457C722.282 231.457 722.282 231.457 722.428 231.457H721.988C722.135 231.457 722.135 231.457 722.282 231.457H721.841C721.988 231.457 722.135 231.457 722.135 231.591L721.841 231.457C721.988 231.457 721.988 231.591 722.135 231.591L721.841 231.457C721.988 231.457 721.988 231.591 722.135 231.591L721.841 231.323L721.988 231.457L721.841 231.188C721.841 231.323 721.841 231.323 721.841 231.457V231.054L721.988 230.384L722.282 230.116L722.135 230.25L722.428 230.116H722.282L722.575 229.981H722.428H722.869H722.282H722.722H722.428L722.722 230.116L722.575 229.981L722.869 230.25C722.722 230.116 722.722 229.981 722.428 229.847C722.282 229.713 722.282 229.713 722.135 229.713H721.988L722.869 230.25V230.116L723.016 230.384V230.786V230.652C723.016 230.518 723.016 230.25 722.869 230.116C722.869 229.981 722.722 229.847 722.575 229.713L722.282 229.579C722.135 229.445 721.988 229.445 721.841 229.445C721.694 229.445 721.547 229.445 721.401 229.445C721.254 229.445 721.107 229.579 720.96 229.579L720.666 229.713C720.52 229.847 720.373 229.981 720.226 230.25Z" fill="black"/>
<path d="M712.738 253.854C713.912 254.793 715.527 255.195 716.996 254.927C718.611 254.927 720.226 254.256 721.254 253.049C721.547 252.379 721.401 251.708 720.667 251.306C720.079 251.038 719.492 251.172 719.051 251.44L718.758 251.708C718.611 251.842 718.464 251.842 718.905 251.708L718.758 251.842L718.464 251.976C718.317 251.976 717.877 252.11 718.317 252.11C718.024 252.245 717.73 252.245 717.583 252.379L717.143 252.513H716.996C716.849 252.513 717.436 252.513 716.996 252.513C716.702 252.513 716.408 252.513 716.115 252.513H715.674C715.381 252.513 715.968 252.513 715.674 252.513H715.381L714.94 252.379C714.646 252.379 714.94 252.379 715.087 252.379C715.234 252.379 714.793 252.245 714.793 252.245L714.646 252.11C714.793 252.11 714.94 252.379 714.793 252.11C714.206 251.574 713.325 251.574 712.884 252.11C712.444 252.647 712.297 253.452 712.738 253.854Z" fill="black"/>
</svg>
